# WaveFront *.obj file (generated by Autodesk ATF)

mtllib task1blender_inventor.mtl

g task1blender.obj_1

v 3.306655 -15.000034 -9.501365
v -3.587121 -15.000034 -9.501365
v 3.306655 -15.010035 -9.501365
v 3.306655 -15.010036 -19.869169
v -3.587121 -15.010036 -19.869169
v 3.306655 -15.000035 -19.869169
v -3.587121 -15.000035 -19.869169
v -3.587121 -15.010035 -9.501365
usemtl 191,191,191
f 1 2 3
f 4 1 3
f 3 5 4
f 5 6 4
f 7 6 5
f 8 7 5
f 2 7 8
f 7 2 6
f 8 5 3
f 6 1 4
f 3 2 8
f 6 2 1
g task1blender.obj_2

v -0.125000 -0.221114 -6.140568
v -0.125000 -0.221114 -8.859465
v -0.125000 -3.050007 -6.140568
v -0.043350 -0.250274 -6.140568
v -0.043350 -0.250274 -0.254001
v -0.125000 -0.221114 -0.254001
v -0.191584 -0.166765 -14.824267
v -0.125000 -0.221114 0.254001
v -0.191584 -0.166763 14.824267
v -0.238077 -0.088528 -14.895543
v -0.240209 -7.500018 -14.900533
v -0.183848 -7.500018 -14.816184
v -0.110671 -0.228621 -14.764766
v -0.043350 -0.250275 -8.859465
v -0.125000 -3.050008 -8.859465
v 0.043350 -0.250275 -8.859465
v 0.125000 -3.050008 -8.859465
v 0.125000 -3.050007 -6.140568
v 0.125000 -0.221114 -6.140568
v 0.043350 -0.250274 -6.140568
v 0.043350 -0.250274 -0.254001
v 0.125000 -0.221114 -0.254001
v 0.125000 -6.100014 -0.254000
v 0.125000 -0.221114 0.254001
v 0.125000 -6.100014 0.254001
v -0.125000 -6.100014 -0.254000
v -0.125000 -6.100014 0.254001
v -0.043350 -0.250274 0.254001
v -0.043350 -0.250273 5.975013
v -0.125000 -0.221113 5.975013
v -0.125000 -3.050006 5.975013
v -0.125000 -3.050006 9.025021
v 0.125000 -3.050006 9.025021
v -0.043350 -0.250273 9.025021
v -0.125000 -0.221113 9.025021
v -0.110671 -0.228619 14.764766
v 0.000000 -0.253999 14.740032
v -0.099498 -7.500016 14.759825
v 0.000000 -7.500016 14.740032
v 0.000000 -7.500016 14.746035
v 0.097202 -7.500016 14.765368
v 0.127000 -15.000032 14.780063
v -0.044107 -15.000032 14.749890
v -0.097202 -7.500016 14.765368
v -0.194576 -15.000032 14.836766
v -0.179606 -7.500016 14.820429
v -0.183848 -7.500016 14.816187
v -0.234666 -7.500016 14.902831
v -0.240209 -7.500016 14.900536
v -0.238077 -0.088526 14.895543
v -0.249563 -0.047274 14.927107
v -0.254001 0.000001 14.944499
v -0.254001 -0.000001 -14.944499
v -0.249563 -0.047276 -14.927107
v -0.260001 -7.500018 -15.000032
v -0.254001 -7.500018 -15.000032
v -0.234666 -7.500018 -14.902830
v -0.254001 -15.000034 -15.000032
v -0.234666 -7.500018 -15.097235
v -0.194576 -15.000034 -15.163301
v -0.194576 -15.000034 -14.836763
v -0.044107 -15.000034 -14.749887
v -0.097202 -7.500018 -14.765367
v -0.179606 -7.500018 -14.820426
v -0.099498 -7.500018 -14.759824
v 0.000000 -7.500018 -14.740031
v 0.000000 -0.254002 -14.740032
v 0.099498 -7.500018 -14.759824
v 0.110671 -0.228621 -14.764766
v 0.125000 -0.221114 -8.859465
v 0.191584 -0.166765 -14.824267
v 0.191584 -0.166763 14.824267
v 0.238077 -0.088528 -14.895543
v 0.238077 -0.088526 14.895543
v 0.240209 -7.500016 14.900536
v 0.183848 -7.500016 14.816187
v 0.110671 -0.228619 14.764766
v 0.125000 -0.221113 9.025021
v 0.125000 -0.221113 5.975013
v 0.043350 -0.250274 0.254001
v 0.043350 -0.250273 5.975013
v 0.125000 -3.050006 5.975013
v 0.043350 -0.250273 9.025021
v 0.099498 -7.500016 14.759825
v 0.179606 -7.500016 14.820429
v 0.234666 -7.500016 14.902831
v 0.238682 -15.000032 14.913161
v 0.238682 -15.000032 15.086905
v 0.254001 -7.500016 15.000034
v 0.234666 -7.500016 15.097237
v 0.240209 -7.500016 15.099533
v 0.183848 -7.500016 15.183881
v 0.179606 -7.500016 15.179639
v 0.099498 -7.500016 15.240243
v 0.097202 -7.500016 15.234699
v 0.127000 -15.000032 15.220005
v 0.000000 -7.500016 15.254034
v 0.000000 -7.500016 15.260036
v -0.097202 -7.500016 15.234699
v -0.044107 -15.000032 15.250177
v -0.194576 -15.000032 15.163301
v -0.254001 -15.000032 15.000034
v -0.234666 -7.500016 15.097237
v -0.254001 -7.500016 15.000034
v -0.240209 -7.500016 15.099533
v -0.260001 -7.500016 15.000034
v -0.260001 0.000001 15.000032
v -0.232477 0.000001 15.116457
v -0.227112 0.000001 15.113770
v -0.254001 0.000001 15.000032
v -0.235420 0.095362 15.095395
v -0.235418 0.095364 -15.095398
v -0.182397 0.176771 15.176805
v -0.152139 0.000001 15.203428
v -0.103555 0.093289 15.231965
v 0.182397 0.176771 15.176805
v 0.103555 0.093289 15.231965
v 0.152139 0.000001 15.203428
v 0.227112 0.000001 15.113770
v 0.235420 0.095362 15.095395
v 0.182391 0.176775 -15.176809
v 0.103555 0.231933 15.093321
v 0.103530 0.231943 -15.093315
v 0.066839 0.245050 15.049494
v -0.066839 0.245050 15.049494
v -0.103555 0.231933 15.093321
v -0.182391 0.176775 -15.176809
v -0.103530 0.231943 -15.093315
v 0.103530 0.093283 -15.231977
v -0.103530 0.093283 -15.231977
v -0.152112 -0.000001 -15.203450
v -0.227104 -0.000001 -15.113787
v -0.254001 -0.000001 -15.000032
v -0.258496 -0.000001 -14.972106
v -0.260001 -0.000001 -15.000032
v -0.240209 -7.500018 -15.099531
v -0.232469 -0.000001 -15.116472
v -0.199439 -0.000001 -15.166838
v -0.183848 -7.500018 -15.183880
v -0.179606 -7.500018 -15.179637
v -0.099498 -7.500018 -15.240241
v -0.097202 -7.500018 -15.234698
v -0.044107 -15.000034 -15.250174
v 0.000000 -7.500018 -15.254033
v 0.127000 -15.000034 -15.220002
v 0.127000 -15.000034 -14.780061
v 0.238682 -15.000034 -14.913159
v 0.179606 -7.500018 -14.820426
v 0.234666 -7.500018 -14.902830
v 0.183848 -7.500018 -14.816184
v 0.097202 -7.500018 -14.765367
v 0.240209 -7.500018 -14.900533
v 0.254001 -7.500018 -15.000032
v 0.260001 -7.500018 -15.000032
v 0.254001 -0.000001 -14.944499
v 0.260001 -0.000001 -15.000032
v 0.254001 -0.000001 -15.000032
v 0.235418 0.095364 -15.095398
v 0.227104 -0.000001 -15.113787
v 0.152112 -0.000001 -15.203450
v 0.199439 -0.000001 -15.166838
v 0.232469 -0.000001 -15.116472
v 0.240209 -7.500018 -15.099531
v 0.183848 -7.500018 -15.183880
v 0.155705 -0.000001 -15.208255
v 0.099498 -7.500018 -15.240241
v 0.045966 -0.000001 -15.255939
v 0.044906 -0.000001 -15.250030
v -0.045966 -0.000001 -15.255939
v -0.044906 -0.000001 -15.250030
v 0.066802 0.049456 -15.245091
v -0.066802 0.049456 -15.245091
v -0.155705 -0.000001 -15.208255
v 0.000000 -7.500018 -15.260033
v 0.097202 -7.500018 -15.234698
v 0.179606 -7.500018 -15.179637
v 0.238682 -15.000034 -15.086905
v 0.234666 -7.500018 -15.097235
v 0.254001 0.000001 14.944499
v 0.254001 0.000001 15.000032
v 0.258496 0.000001 14.972106
v 0.260001 -7.500016 15.000034
v 0.249563 -0.047274 14.927107
v 0.249563 -0.047276 -14.927107
v 0.260001 0.000001 15.000032
v 0.232477 0.000001 15.116457
v 0.199455 0.000001 15.166820
v 0.000000 -7.500018 -14.746034
v -0.066802 0.245058 -15.049490
v 0.066802 0.245058 -15.049490
v 0.044906 0.249998 -15.000032
v 0.044956 0.249992 15.000032
v 0.015056 0.253555 15.000032
v -0.015056 0.253555 15.000032
v 0.015039 0.253554 -15.000032
v -0.015039 0.253554 -15.000032
v -0.044906 0.249998 -15.000032
v -0.044956 0.249992 15.000032
v 0.155733 0.000001 15.208232
v 0.044956 0.000001 15.250023
v 0.066839 0.049462 15.245083
v -0.066839 0.049462 15.245083
v -0.044956 0.000001 15.250023
v -0.046018 0.000001 15.255930
v 0.046018 0.000001 15.255930
v -0.099498 -7.500016 15.240243
v -0.155733 0.000001 15.208232
v -0.183848 -7.500016 15.183881
v -0.179606 -7.500016 15.179639
v -0.199455 0.000001 15.166820
usemtl 235,235,235
f 9 10 11
f 11 12 9
usemtl 239,239,239
f 12 13 9
f 9 13 14
f 9 14 15
f 15 14 16
f 15 16 17
f 17 18 15
usemtl 178,0,0
f 18 19 15
f 15 19 20
f 15 20 21
usemtl 239,239,239
f 21 10 15
f 21 22 10
usemtl 235,235,235
f 10 22 23
f 23 22 24
f 23 24 25
f 25 26 23
f 23 26 11
f 25 27 26
f 27 28 26
f 26 28 12
usemtl 239,239,239
f 28 29 12
f 28 30 29
usemtl 178,0,0
f 31 29 30
f 30 32 31
f 31 32 33
f 31 33 34
f 34 33 35
f 35 14 34
f 33 36 35
f 35 36 16
usemtl 239,239,239
f 36 37 16
f 16 37 38
usemtl 235,235,235
f 38 37 39
f 40 38 39
f 39 41 40
f 41 42 40
f 40 42 43
usemtl 239,239,239
f 44 43 42
f 44 42 45
usemtl 0,0,0
f 46 44 45
f 45 47 46
usemtl 235,235,235
f 48 46 47
f 48 47 49
usemtl 178,0,0
f 49 50 48
f 48 50 51
f 48 51 52
f 52 51 53
f 52 53 54
usemtl 235,235,235
f 54 46 52
f 54 55 46
f 56 55 54
f 56 57 55
usemtl 0,0,0
f 57 17 55
f 55 17 44
f 57 58 17
f 59 58 57
f 59 57 60
usemtl 239,239,239
f 60 61 59
f 59 61 62
usemtl 178,0,0
f 61 19 62
f 61 63 19
usemtl 235,235,235
f 19 63 64
f 65 19 64
usemtl 0,0,0
f 66 65 64
f 66 64 67
f 67 68 66
usemtl 235,235,235
f 66 68 69
f 69 68 70
usemtl 0,0,0
f 70 71 69
f 69 71 72
f 69 72 65
usemtl 235,235,235
f 72 20 65
f 72 73 20
f 71 73 72
f 71 74 73
usemtl 178,0,0
f 75 73 74
f 75 74 76
f 76 77 75
usemtl 239,239,239
f 77 24 75
f 24 77 78
f 78 77 79
f 78 79 27
f 27 79 30
f 80 30 79
f 79 81 80
f 80 81 82
usemtl 0,0,0
f 82 83 80
f 80 83 84
f 80 84 85
usemtl 239,239,239
f 85 86 80
f 80 86 87
f 87 32 80
f 87 88 32
f 89 88 87
usemtl 235,235,235
f 90 89 87
f 39 89 90
usemtl 239,239,239
f 88 89 36
usemtl 235,235,235
f 87 86 90
f 90 86 41
f 86 91 41
usemtl 239,239,239
f 85 91 86
f 45 91 85
usemtl 0,0,0
f 85 92 45
f 85 84 92
usemtl 235,235,235
f 93 92 84
f 93 84 94
usemtl 178,0,0
f 94 95 93
f 93 95 50
usemtl 235,235,235
f 96 50 95
usemtl 178,0,0
f 97 96 95
f 98 96 97
usemtl 235,235,235
f 97 99 98
f 98 99 100
f 98 100 101
f 101 100 102
f 101 102 103
usemtl 178,0,0
f 103 104 101
f 101 104 96
f 105 104 103
usemtl 235,235,235
f 103 106 105
f 105 106 107
usemtl 178,0,0
f 107 108 105
f 108 107 109
usemtl 235,235,235
f 109 53 108
f 110 53 109
usemtl 178,0,0
f 109 111 110
f 110 111 112
f 110 112 56
usemtl 235,235,235
f 111 113 112
f 113 114 112
f 112 114 57
usemtl 0,0,0
f 115 114 113
f 115 113 116
usemtl 235,235,235
f 116 117 115
f 115 117 118
f 115 118 60
usemtl 239,239,239
f 119 60 118
f 120 60 119
f 121 120 119
usemtl 255,255,255
f 119 122 121
f 121 122 123
f 124 121 123
f 124 123 125
f 125 126 124
f 124 126 127
f 124 127 128
usemtl 239,239,239
f 128 129 124
f 124 129 130
f 130 129 131
f 130 131 132
usemtl 255,255,255
f 132 133 130
f 130 133 134
f 130 134 121
usemtl 239,239,239
f 134 135 121
f 134 136 135
usemtl 255,255,255
f 136 129 135
f 135 129 137
f 135 137 138
f 138 139 135
f 135 139 140
f 135 140 120
f 120 140 141
usemtl 239,239,239
f 141 61 120
usemtl 235,235,235
f 141 142 61
f 141 143 142
usemtl 178,0,0
f 143 63 142
f 143 144 63
f 145 144 143
usemtl 235,235,235
f 140 145 143
f 140 146 145
usemtl 178,0,0
f 146 144 145
f 146 147 144
usemtl 235,235,235
f 67 144 147
f 67 147 148
f 148 147 149
f 148 149 150
usemtl 0,0,0
f 150 68 148
f 150 151 68
f 152 151 150
f 152 153 151
usemtl 235,235,235
f 154 151 153
f 154 153 155
usemtl 0,0,0
f 156 154 155
f 156 155 157
usemtl 235,235,235
f 157 158 156
f 156 158 76
f 156 76 159
f 157 160 158
usemtl 178,0,0
f 160 79 158
usemtl 235,235,235
f 161 160 157
f 161 162 160
usemtl 178,0,0
f 163 160 162
f 163 162 164
usemtl 235,235,235
f 164 165 163
usemtl 239,239,239
f 128 163 165
f 128 165 166
usemtl 255,255,255
f 165 167 166
f 166 167 168
f 166 168 129
usemtl 235,235,235
f 169 168 167
f 169 167 170
usemtl 178,0,0
f 170 171 169
f 169 171 172
f 169 172 173
f 173 172 174
f 173 174 175
usemtl 235,235,235
f 176 173 175
f 176 175 177
f 176 177 178
usemtl 255,255,255
f 178 179 176
f 137 176 179
f 180 137 179
f 137 168 176
f 180 179 178
f 178 139 180
usemtl 235,235,235
f 178 181 139
f 139 181 146
f 178 177 181
usemtl 178,0,0
f 177 149 181
f 177 182 149
usemtl 235,235,235
f 152 149 182
f 152 182 183
f 183 182 174
f 183 174 184
usemtl 0,0,0
f 184 153 183
f 184 185 153
f 186 185 184
usemtl 235,235,235
f 184 172 186
usemtl 0,0,0
f 161 185 186
usemtl 235,235,235
f 186 171 161
usemtl 0,0,0
f 161 155 185
usemtl 178,0,0
f 175 182 177
usemtl 235,235,235
f 168 173 176
usemtl 178,0,0
f 175 174 182
usemtl 235,235,235
f 184 174 172
f 186 172 171
usemtl 178,0,0
f 164 171 170
usemtl 235,235,235
f 170 167 164
f 173 168 169
usemtl 239,239,239
f 187 163 128
f 188 187 128
usemtl 235,235,235
f 188 189 187
usemtl 0,0,0
f 189 190 187
f 187 190 83
f 187 83 191
usemtl 239,239,239
f 191 192 187
f 191 81 192
usemtl 178,0,0
f 192 81 160
usemtl 235,235,235
f 97 83 190
f 94 83 97
usemtl 0,0,0
f 193 190 189
f 193 99 190
f 194 99 193
usemtl 235,235,235
f 127 194 193
f 127 193 188
f 127 195 194
usemtl 0,0,0
f 195 99 194
usemtl 235,235,235
f 188 193 189
usemtl 239,239,239
f 187 192 163
usemtl 235,235,235
f 164 167 165
usemtl 178,0,0
f 164 162 171
f 192 160 163
usemtl 235,235,235
f 161 171 162
usemtl 0,0,0
f 157 155 161
f 159 154 156
f 196 154 159
usemtl 235,235,235
f 159 74 196
usemtl 0,0,0
f 196 70 154
usemtl 235,235,235
f 155 153 185
f 70 151 154
usemtl 0,0,0
f 183 153 152
usemtl 235,235,235
f 150 149 152
usemtl 178,0,0
f 181 149 147
f 181 147 146
usemtl 235,235,235
f 140 143 141
f 139 146 140
usemtl 255,255,255
f 180 139 138
f 138 137 180
f 129 168 137
usemtl 239,239,239
f 133 136 134
f 133 197 136
usemtl 255,255,255
f 197 198 136
f 136 198 131
f 197 199 198
usemtl 239,239,239
f 200 198 199
f 200 199 201
usemtl 235,235,235
f 202 200 201
usemtl 239,239,239
f 201 203 202
f 202 203 204
f 202 204 205
f 202 205 206
f 206 205 197
usemtl 235,235,235
f 203 205 204
f 199 205 203
f 206 200 202
usemtl 255,255,255
f 200 206 132
usemtl 239,239,239
f 201 199 203
f 132 198 200
usemtl 255,255,255
f 205 199 197
usemtl 239,239,239
f 206 197 133
usemtl 255,255,255
f 132 206 133
usemtl 239,239,239
f 132 131 198
usemtl 255,255,255
f 136 131 129
usemtl 239,239,239
f 166 129 128
usemtl 255,255,255
f 128 127 188
usemtl 235,235,235
f 126 195 127
f 126 207 195
usemtl 0,0,0
f 207 100 195
usemtl 235,235,235
f 208 207 126
usemtl 255,255,255
f 208 126 209
f 209 210 208
f 208 210 211
usemtl 235,235,235
f 211 212 208
f 208 212 213
usemtl 0,0,0
f 212 106 213
f 213 106 102
f 213 102 207
f 212 214 106
f 215 214 212
f 215 216 214
usemtl 235,235,235
f 217 214 216
f 217 216 111
f 107 214 217
usemtl 0,0,0
f 218 216 215
usemtl 235,235,235
f 215 122 218
f 218 122 117
f 215 211 122
usemtl 0,0,0
f 218 113 216
usemtl 235,235,235
f 212 211 215
usemtl 255,255,255
f 123 211 210
f 209 123 210
usemtl 235,235,235
f 208 213 207
usemtl 255,255,255
f 209 126 125
f 125 123 209
f 130 121 124
f 123 122 211
f 119 117 122
usemtl 239,239,239
f 121 135 120
usemtl 255,255,255
f 118 117 119
usemtl 235,235,235
f 218 117 116
usemtl 0,0,0
f 116 113 218
f 60 114 115
usemtl 235,235,235
f 111 216 113
usemtl 178,0,0
f 109 217 111
f 56 53 110
f 109 107 217
usemtl 235,235,235
f 107 106 214
usemtl 178,0,0
f 105 108 104
usemtl 235,235,235
f 108 51 104
f 103 102 106
usemtl 0,0,0
f 207 102 100
f 195 100 99
usemtl 235,235,235
f 97 190 99
usemtl 178,0,0
f 101 96 98
usemtl 235,235,235
f 104 50 96
usemtl 178,0,0
f 97 95 94
usemtl 235,235,235
f 49 92 93
f 94 84 83
usemtl 0,0,0
f 191 83 82
usemtl 239,239,239
f 82 81 191
usemtl 178,0,0
f 160 81 79
f 158 79 77
f 158 77 76
usemtl 235,235,235
f 159 76 74
usemtl 178,0,0
f 21 73 75
usemtl 235,235,235
f 196 74 71
usemtl 0,0,0
f 71 70 196
usemtl 235,235,235
f 70 68 151
usemtl 0,0,0
f 148 68 67
usemtl 235,235,235
f 64 144 67
usemtl 0,0,0
f 69 65 66
usemtl 235,235,235
f 64 63 144
usemtl 178,0,0
f 142 63 61
usemtl 239,239,239
f 120 61 60
usemtl 0,0,0
f 60 57 114
usemtl 239,239,239
f 59 62 58
f 58 62 18
usemtl 235,235,235
f 112 57 56
usemtl 178,0,0
f 54 53 56
usemtl 235,235,235
f 108 53 51
f 104 51 50
usemtl 178,0,0
f 93 50 49
usemtl 235,235,235
f 49 47 92
f 52 46 48
usemtl 0,0,0
f 45 92 47
f 55 44 46
usemtl 239,239,239
f 45 42 91
f 17 43 44
f 17 38 43
usemtl 235,235,235
f 41 91 42
f 90 41 39
f 43 38 40
f 39 37 89
usemtl 239,239,239
f 36 89 37
usemtl 178,0,0
f 33 88 36
f 32 88 33
usemtl 239,239,239
f 80 32 30
usemtl 178,0,0
f 34 29 31
f 34 13 29
usemtl 239,239,239
f 27 30 28
usemtl 235,235,235
f 78 27 25
f 25 24 78
usemtl 239,239,239
f 75 24 22
f 75 22 21
usemtl 178,0,0
f 21 20 73
usemtl 235,235,235
f 65 20 19
usemtl 178,0,0
f 62 19 18
usemtl 239,239,239
f 58 18 17
f 17 16 38
usemtl 178,0,0
f 16 14 35
f 14 13 34
usemtl 239,239,239
f 12 29 13
usemtl 235,235,235
f 26 12 11
f 11 10 23
usemtl 239,239,239
f 15 10 9
# 218 vertices
# 0 texture params
# 0 normals
# 428 facets

# 2 groups
