# Blender 5.0.1
# www.blender.org
mtllib task1blender.mtl
o Marines
v -3.587121 -15.010036 -19.869169
v -3.587121 -15.010035 -9.501365
v -3.587121 -15.000035 -19.869169
v -3.587121 -15.000034 -9.501365
v 3.306655 -15.010036 -19.869169
v 3.306655 -15.010035 -9.501365
v 3.306655 -15.000035 -19.869169
v 3.306655 -15.000034 -9.501365
v -0.125000 -0.221114 -6.140568
v -0.125000 -0.221114 -8.859465
v -0.125000 -3.050007 -6.140568
v -0.125000 -3.050008 -8.859465
v -0.043350 -0.250275 -8.859465
v 0.043350 -0.250275 -8.859465
v 0.125000 -3.050008 -8.859465
v 0.125000 -0.221114 -8.859465
v 0.125000 -0.221114 -6.140568
v 0.043350 -0.250274 -6.140568
v 0.125000 -3.050007 -6.140568
v -0.043350 -0.250274 -6.140568
v -0.125000 -0.221113 9.025021
v -0.125000 -0.221113 5.975013
v -0.125000 -3.050006 9.025021
v -0.125000 -3.050006 5.975013
v -0.043350 -0.250273 5.975013
v 0.043350 -0.250273 5.975013
v 0.125000 -3.050006 5.975013
v 0.125000 -0.221113 5.975013
v 0.125000 -0.221113 9.025021
v 0.043350 -0.250273 9.025021
v 0.125000 -3.050006 9.025021
v -0.043350 -0.250273 9.025021
v -0.125000 -0.221114 0.254001
v -0.125000 -0.221114 -0.254001
v -0.125000 -6.100014 0.254001
v -0.125000 -6.100014 -0.254000
v -0.043350 -0.250274 -0.254001
v 0.043350 -0.250274 -0.254001
v 0.125000 -6.100014 -0.254000
v 0.125000 -0.221114 -0.254001
v 0.125000 -0.221114 0.254001
v 0.043350 -0.250274 0.254001
v 0.125000 -6.100014 0.254001
v -0.043350 -0.250274 0.254001
v -0.240209 -7.500018 -14.900534
v -0.260001 -7.500018 -15.000032
v -0.254001 -7.500018 -15.000032
v -0.240209 -7.500018 -15.099531
v -0.234666 -7.500018 -15.097235
v -0.183848 -7.500018 -15.183880
v -0.179606 -7.500018 -15.179637
v -0.099498 -7.500018 -15.240241
v -0.097202 -7.500018 -15.234698
v 0.000000 -7.500018 -15.254032
v 0.000000 -7.500018 -15.260033
v 0.097202 -7.500018 -15.234698
v 0.099498 -7.500018 -15.240241
v 0.179606 -7.500018 -15.179637
v 0.183848 -7.500018 -15.183880
v 0.234666 -7.500018 -15.097235
v 0.240209 -7.500018 -15.099531
v 0.254001 -7.500018 -15.000032
v 0.260001 -7.500018 -15.000032
v 0.240209 -7.500018 -14.900534
v 0.234666 -7.500018 -14.902830
v 0.183848 -7.500018 -14.816184
v 0.179606 -7.500018 -14.820427
v 0.099498 -7.500018 -14.759823
v 0.097202 -7.500018 -14.765367
v 0.000000 -7.500018 -14.740031
v 0.000000 -7.500018 -14.746033
v -0.097202 -7.500018 -14.765367
v -0.099498 -7.500018 -14.759823
v -0.179606 -7.500018 -14.820427
v -0.183848 -7.500018 -14.816184
v -0.234666 -7.500018 -14.902830
v 0.249563 -0.047276 -14.927107
v 0.254001 -0.000001 -14.944498
v 0.260001 -0.000001 -15.000033
v 0.232469 -0.000001 -15.116472
v 0.199439 -0.000001 -15.166839
v 0.155705 -0.000001 -15.208255
v 0.045966 -0.000001 -15.255939
v -0.045966 -0.000001 -15.255939
v -0.155705 -0.000001 -15.208255
v -0.199439 -0.000001 -15.166839
v -0.232469 -0.000001 -15.116472
v -0.260001 -0.000001 -15.000033
v -0.258496 -0.000001 -14.972105
v -0.254001 -0.000001 -14.944498
v -0.249563 -0.047276 -14.927107
v -0.238077 -0.088528 -14.895543
v -0.191584 -0.166765 -14.824267
v -0.110671 -0.228621 -14.764766
v 0.000000 -0.254002 -14.740032
v 0.238077 -0.088528 -14.895543
v 0.191584 -0.166765 -14.824267
v 0.110671 -0.228621 -14.764766
v -0.240209 -7.500016 15.099533
v -0.260001 -7.500016 15.000034
v -0.254001 -7.500016 15.000034
v -0.240209 -7.500016 14.900536
v -0.234666 -7.500016 14.902832
v -0.183848 -7.500016 14.816186
v -0.179606 -7.500016 14.820429
v -0.099498 -7.500016 14.759825
v -0.097202 -7.500016 14.765368
v 0.000000 -7.500016 14.746035
v 0.000000 -7.500016 14.740033
v 0.097202 -7.500016 14.765368
v 0.099498 -7.500016 14.759825
v 0.179606 -7.500016 14.820429
v 0.183848 -7.500016 14.816186
v 0.234666 -7.500016 14.902832
v 0.240209 -7.500016 14.900536
v 0.254001 -7.500016 15.000034
v 0.260001 -7.500016 15.000034
v 0.240209 -7.500016 15.099533
v 0.234666 -7.500016 15.097237
v 0.183848 -7.500016 15.183882
v 0.179606 -7.500016 15.179639
v 0.099498 -7.500016 15.240243
v 0.097202 -7.500016 15.234700
v 0.000000 -7.500016 15.260035
v 0.000000 -7.500016 15.254034
v -0.097202 -7.500016 15.234700
v -0.099498 -7.500016 15.240243
v -0.179606 -7.500016 15.179639
v -0.183848 -7.500016 15.183882
v -0.234666 -7.500016 15.097237
v -0.249563 -0.047274 14.927107
v -0.254001 0.000001 14.944498
v -0.260001 0.000001 15.000033
v -0.232477 0.000001 15.116458
v -0.199455 0.000001 15.166820
v -0.155733 0.000001 15.208233
v -0.046018 0.000001 15.255930
v 0.046018 0.000001 15.255930
v 0.155733 0.000001 15.208233
v 0.199455 0.000001 15.166820
v 0.232477 0.000001 15.116458
v 0.260001 0.000001 15.000033
v 0.258496 0.000001 14.972105
v 0.254001 0.000001 14.944498
v 0.249563 -0.047274 14.927107
v 0.238077 -0.088526 14.895543
v 0.191584 -0.166763 14.824267
v 0.110671 -0.228619 14.764766
v 0.000000 -0.253999 14.740032
v -0.238077 -0.088526 14.895543
v -0.191584 -0.166763 14.824267
v -0.110671 -0.228619 14.764766
v -0.254001 -0.000001 -15.000033
v -0.235418 0.095364 -15.095398
v -0.235420 0.095362 15.095395
v -0.254001 0.000001 15.000033
v 0.235420 0.095362 15.095395
v 0.254001 -0.000001 -15.000033
v 0.235418 0.095364 -15.095398
v 0.182391 0.176775 -15.176809
v 0.182397 0.176771 15.176804
v 0.103555 0.231933 15.093321
v 0.103530 0.231943 -15.093316
v 0.066839 0.245050 15.049495
v 0.066802 0.245058 -15.049490
v 0.044956 0.249992 15.000033
v 0.044906 0.249998 -15.000033
v 0.015056 0.253555 15.000033
v 0.015039 0.253554 -15.000033
v -0.015056 0.253555 15.000033
v -0.015039 0.253554 -15.000033
v -0.044906 0.249998 -15.000033
v -0.044956 0.249992 15.000033
v -0.066802 0.245058 -15.049490
v -0.066839 0.245050 15.049495
v -0.103530 0.231943 -15.093316
v -0.103555 0.231933 15.093321
v -0.182391 0.176775 -15.176809
v -0.182397 0.176771 15.176804
v 0.254001 0.000001 15.000033
v 0.227104 -0.000001 -15.113787
v 0.152112 -0.000001 -15.203450
v 0.103530 0.093283 -15.231977
v 0.044906 -0.000001 -15.250031
v 0.066802 0.049456 -15.245091
v -0.194576 -15.000034 -14.836764
v -0.254001 -15.000034 -15.000032
v -0.044107 -15.000034 -14.749888
v 0.127000 -15.000034 -14.780061
v 0.238682 -15.000034 -14.913159
v 0.238682 -15.000034 -15.086905
v 0.127000 -15.000034 -15.220003
v -0.044107 -15.000034 -15.250175
v -0.194576 -15.000034 -15.163301
v -0.227112 0.000001 15.113771
v -0.152139 0.000001 15.203428
v -0.103555 0.093289 15.231965
v -0.044956 0.000001 15.250023
v -0.066839 0.049462 15.245083
v -0.194576 -15.000032 15.163302
v -0.254001 -15.000032 15.000034
v -0.044107 -15.000032 15.250177
v 0.127000 -15.000032 15.220005
v 0.238682 -15.000032 15.086906
v 0.238682 -15.000032 14.913161
v 0.127000 -15.000032 14.780063
v -0.044107 -15.000032 14.749890
v -0.194576 -15.000032 14.836766
v -0.103530 0.093283 -15.231977
v -0.066802 0.049456 -15.245091
v -0.044906 -0.000001 -15.250031
v -0.152112 -0.000001 -15.203450
v -0.227104 -0.000001 -15.113787
v 0.103555 0.093289 15.231965
v 0.066839 0.049462 15.245083
v 0.044956 0.000001 15.250023
v 0.152139 0.000001 15.203428
v 0.227112 0.000001 15.113771
vn -0.0000 -0.0000 1.0000
vn 1.0000 -0.0000 -0.0000
vn -0.0000 -0.0000 -1.0000
vn -1.0000 -0.0000 -0.0000
vn -0.0000 -1.0000 -0.0000
vn -0.0000 1.0000 -0.0000
vn -0.7058 -0.6760 0.2121
vn -0.7058 -0.6759 -0.2120
vn -0.5774 -0.5773 0.5773
vn -0.5773 -0.5774 -0.5774
vn -0.1134 -0.6546 -0.7474
vn 0.1134 -0.6546 -0.7475
vn 0.5774 -0.5773 -0.5773
vn 0.7058 -0.6759 -0.2120
vn 0.7058 -0.6759 0.2121
vn 0.1133 -0.6544 0.7476
vn 0.5773 -0.5774 0.5774
vn -0.1133 -0.6544 0.7476
vn -0.7058 -0.6759 0.2120
vn -0.7058 -0.6759 -0.2121
vn -0.1134 -0.6544 -0.7476
vn 0.1134 -0.6544 -0.7476
vn 0.7058 -0.6759 -0.2121
vn 0.7058 -0.6759 0.2120
vn 0.1134 -0.6546 0.7474
vn -0.1134 -0.6546 0.7474
vn -0.5774 -0.5773 -0.5774
vn -0.1133 -0.6544 -0.7476
vn 0.1133 -0.6544 -0.7476
vn 0.7058 -0.6760 -0.2121
vn 0.5774 -0.5773 0.5774
vn -0.6892 -0.6659 0.2856
vn -0.7461 -0.6658 -0.0002
vn -0.6572 -0.7538 -0.0000
vn -0.6894 -0.6658 -0.2854
vn -0.6072 -0.7537 -0.2514
vn -0.5275 -0.6659 -0.5275
vn -0.4645 -0.7538 -0.4648
vn -0.2855 -0.6659 -0.6892
vn -0.2517 -0.7537 -0.6071
vn 0.0004 -0.7538 -0.6571
vn -0.0000 -0.6660 -0.7460
vn 0.2511 -0.7538 -0.6072
vn 0.2855 -0.6659 -0.6892
vn 0.4648 -0.7537 -0.4646
vn 0.5275 -0.6659 -0.5275
vn 0.6071 -0.7538 -0.2516
vn 0.6894 -0.6658 -0.2854
vn 0.6572 -0.7537 -0.0000
vn 0.7461 -0.6658 -0.0002
vn 0.6892 -0.6659 0.2856
vn 0.6071 -0.7538 0.2516
vn 0.5276 -0.6658 0.5276
vn 0.4648 -0.7537 0.4646
vn 0.2855 -0.6657 0.6894
vn 0.2511 -0.7538 0.6072
vn -0.0000 -0.6657 0.7462
vn 0.0004 -0.7538 0.6571
vn -0.2517 -0.7537 0.6070
vn -0.2855 -0.6657 0.6894
vn -0.4645 -0.7538 0.4648
vn -0.5276 -0.6658 0.5276
vn -0.6072 -0.7537 0.2514
vn 0.9867 -0.0692 0.1472
vn 0.9946 0.0952 0.0414
vn 0.7400 0.6710 -0.0460
vn 0.6817 0.6701 -0.2935
vn 0.5612 0.6819 -0.4691
vn 0.4093 0.6703 -0.6190
vn 0.1520 0.6643 -0.7318
vn -0.1520 0.6643 -0.7318
vn -0.4093 0.6703 -0.6190
vn -0.5612 0.6819 -0.4691
vn -0.6817 0.6701 -0.2935
vn -0.7335 0.6765 -0.0655
vn -0.7147 0.6951 0.0773
vn -0.9931 0.1037 0.0547
vn -0.9867 -0.0692 0.1472
vn -0.9623 -0.1718 0.2106
vn -0.8715 -0.3368 0.3564
vn -0.5927 -0.5660 0.5730
vn -0.0000 -0.7058 0.7084
vn 0.9623 -0.1718 0.2106
vn 0.8715 -0.3368 0.3564
vn 0.5927 -0.5660 0.5730
vn -0.6894 -0.6658 0.2854
vn -0.7461 -0.6658 0.0002
vn -0.6892 -0.6659 -0.2856
vn -0.5276 -0.6658 -0.5276
vn -0.2855 -0.6657 -0.6894
vn -0.0000 -0.6657 -0.7462
vn 0.2855 -0.6657 -0.6894
vn 0.5276 -0.6658 -0.5276
vn 0.6892 -0.6659 -0.2856
vn 0.7461 -0.6658 0.0002
vn 0.6894 -0.6658 0.2854
vn 0.5275 -0.6659 0.5275
vn 0.2855 -0.6659 0.6892
vn -0.0000 -0.6660 0.7460
vn -0.2855 -0.6659 0.6892
vn -0.5275 -0.6659 0.5275
vn -0.9867 -0.0692 -0.1472
vn -0.9946 0.0952 -0.0414
vn -0.7400 0.6710 0.0460
vn -0.6817 0.6701 0.2935
vn -0.5612 0.6819 0.4691
vn -0.4094 0.6703 0.6189
vn -0.1521 0.6643 0.7318
vn 0.1521 0.6643 0.7318
vn 0.4094 0.6703 0.6189
vn 0.5612 0.6819 0.4691
vn 0.6817 0.6701 0.2935
vn 0.7335 0.6765 0.0655
vn 0.7147 0.6951 -0.0773
vn 0.9931 0.1037 -0.0547
vn 0.9867 -0.0692 -0.1472
vn 0.9623 -0.1718 -0.2106
vn 0.8715 -0.3368 -0.3564
vn 0.5927 -0.5660 -0.5730
vn -0.0000 -0.7058 -0.7084
vn -0.9623 -0.1718 -0.2106
vn -0.8715 -0.3368 -0.3564
vn -0.5927 -0.5660 -0.5730
vn -0.6275 0.7777 -0.0366
vn -0.9420 0.2451 -0.2292
vn -0.9365 0.2343 0.2610
vn -0.6275 0.7777 0.0366
vn 0.9420 0.2451 0.2291
vn 0.6275 0.7777 -0.0366
vn 0.9365 0.2343 -0.2610
vn 0.5858 0.5706 -0.5755
vn 0.5795 0.5776 0.5749
vn 0.2726 0.9260 0.2613
vn 0.2725 0.9260 -0.2613
vn 0.1483 0.9811 0.1243
vn 0.1483 0.9811 -0.1243
vn 0.1256 0.9908 0.0506
vn 0.1255 0.9908 -0.0506
vn 0.0427 0.7187 0.6940
vn 0.0426 0.7187 -0.6940
vn -0.0427 0.7187 0.6940
vn -0.0426 0.7187 -0.6940
vn -0.1255 0.9908 -0.0506
vn -0.1256 0.9908 0.0506
vn -0.1483 0.9811 -0.1243
vn -0.1483 0.9811 0.1243
vn -0.2725 0.9260 -0.2613
vn -0.2726 0.9260 0.2613
vn -0.5795 0.5776 -0.5749
vn -0.5858 0.5706 0.5755
vn 0.6275 0.7777 0.0366
vn 0.5643 0.7673 -0.3045
vn 0.4053 0.7570 -0.5125
vn 0.2570 0.2533 -0.9326
vn 0.0977 0.7669 -0.6343
vn 0.2124 0.0752 -0.9743
vn -0.5896 -0.6384 0.4948
vn -0.7697 -0.6384 -0.0000
vn -0.1336 -0.6383 0.7581
vn 0.3848 -0.6383 0.6667
vn 0.7233 -0.6384 0.2633
vn 0.7233 -0.6384 -0.2633
vn 0.3848 -0.6383 -0.6667
vn -0.1336 -0.6383 -0.7581
vn -0.5896 -0.6383 -0.4948
vn -0.5644 0.7673 0.3045
vn -0.4054 0.7570 0.5124
vn -0.2571 0.2533 0.9326
vn -0.0978 0.7669 0.6342
vn -0.2125 0.0752 0.9743
vn -0.2574 0.2552 -0.9320
vn -0.1888 0.0900 -0.9779
vn -0.0960 0.7661 -0.6356
vn -0.4008 0.7515 -0.5241
vn -0.5864 0.7541 -0.2957
vn 0.2575 0.2553 0.9320
vn 0.1889 0.0901 0.9779
vn 0.0961 0.7661 0.6355
vn 0.4009 0.7514 0.5240
vn 0.5864 0.7541 0.2957
vt 0.805950 0.493387
vt 0.805950 0.720083
vt 0.805621 0.493387
vt 0.805621 0.720083
vt 0.756129 0.340969
vt 0.756129 0.000000
vt 0.756458 0.340969
vt 0.756458 0.000000
vt 0.805621 0.720091
vt 0.805292 0.493387
vt 0.805292 0.720091
vt 0.756458 0.340989
vt 0.756458 0.680675
vt 0.756129 0.340990
vt 0.756129 0.680676
vt 0.756130 -0.000000
vt 0.756130 0.340989
vt 0.529399 -0.000000
vt 0.529399 0.340989
vt 0.529399 0.681978
vt 0.529399 0.340989
vt 0.756129 0.681978
vt 0.756129 0.340989
vt 0.769575 0.740089
vt 0.858656 0.740280
vt 0.769575 0.833101
vt 0.858656 0.833292
vt 0.740082 0.681979
vt 0.742767 0.682937
vt 0.740082 0.775013
vt 0.745618 0.682937
vt 0.748303 0.775012
vt 0.748303 0.681978
vt 0.731861 0.775014
vt 0.729176 0.774054
vt 0.731861 0.681979
vt 0.726325 0.774054
vt 0.723640 0.681978
vt 0.723640 0.775012
vt 0.622406 0.782132
vt 0.711823 0.782106
vt 0.622406 0.875139
vt 0.711823 0.875113
vt 0.756458 0.829497
vt 0.756458 0.740075
vt 0.764681 0.829497
vt 0.764681 0.740075
vt 0.715418 0.681978
vt 0.715418 0.781907
vt 0.622406 0.682177
vt 0.622406 0.782106
vt 0.822593 0.493388
vt 0.825279 0.494346
vt 0.822593 0.586422
vt 0.828130 0.494346
vt 0.830815 0.586421
vt 0.830815 0.493387
vt 0.740082 0.775014
vt 0.737397 0.774054
vt 0.740082 0.681979
vt 0.734546 0.774054
vt 0.731861 0.681978
vt 0.731861 0.775012
vt 0.529399 0.782284
vt 0.529399 0.681978
vt 0.622406 0.782311
vt 0.622406 0.682004
vt 0.715418 0.782290
vt 0.715418 0.681978
vt 0.723640 0.782290
vt 0.723640 0.681978
vt 0.805950 0.493386
vt 0.822593 0.493422
vt 0.805950 0.686681
vt 0.822593 0.686717
vt 0.815374 0.000001
vt 0.818059 0.000960
vt 0.815374 0.193342
vt 0.820910 0.000959
vt 0.823595 0.193341
vt 0.823595 0.000000
vt 0.815374 0.193343
vt 0.812689 0.192383
vt 0.815374 0.000002
vt 0.809837 0.192382
vt 0.807152 0.000000
vt 0.807152 0.193341
vt 0.807065 0.246747
vt 0.823772 0.246743
vt 0.807065 0.440031
vt 0.823772 0.440026
vt 0.715418 0.798998
vt 0.715418 0.782290
vt 0.723640 0.798998
vt 0.723640 0.782290
vt 0.547449 0.795448
vt 0.546172 0.792366
vt 0.546366 0.792327
vt 0.546172 0.789029
vt 0.546366 0.789068
vt 0.547449 0.785947
vt 0.547613 0.786056
vt 0.549809 0.783587
vt 0.549918 0.783752
vt 0.552930 0.782504
vt 0.552891 0.782311
vt 0.556189 0.782504
vt 0.556228 0.782311
vt 0.559201 0.783752
vt 0.559310 0.783587
vt 0.561505 0.786056
vt 0.561669 0.785947
vt 0.562753 0.789068
vt 0.562946 0.789029
vt 0.562946 0.792366
vt 0.562753 0.792327
vt 0.561669 0.795448
vt 0.561505 0.795339
vt 0.559310 0.797808
vt 0.559201 0.797644
vt 0.556228 0.799084
vt 0.556189 0.798891
vt 0.552930 0.798891
vt 0.552891 0.799084
vt 0.549918 0.797644
vt 0.549809 0.797808
vt 0.547613 0.795339
vt 0.007307 0.990947
vt 0.252343 0.990140
vt 0.005749 0.991520
vt 0.252326 0.993419
vt 0.005744 0.993348
vt 0.252343 0.996684
vt 0.005768 0.997168
vt 0.005797 0.998813
vt 0.252393 0.999438
vt 0.769575 0.493387
vt 0.769030 0.740048
vt 0.768158 0.493401
vt 0.766285 0.740068
vt 0.764573 0.493418
vt 0.763023 0.740075
vt 0.761550 0.493418
vt 0.759741 0.740068
vt 0.757917 0.493401
vt 0.756939 0.740048
vt 0.756458 0.493387
vt 0.499000 0.995321
vt 0.252393 0.996363
vt 0.252438 0.993762
vt 0.499027 0.993765
vt 0.499049 0.990029
vt 0.252454 0.990559
vt 0.499048 0.989110
vt 0.499044 0.988193
vt 0.252438 0.987242
vt 0.497486 0.987613
vt 0.496121 0.986549
vt 0.493511 0.984086
vt 0.252393 0.984316
vt 0.794465 0.487943
vt 0.794678 0.246770
vt 0.797159 0.485888
vt 0.797484 0.246750
vt 0.800812 0.485044
vt 0.800767 0.246743
vt 0.804028 0.246750
vt 0.008674 0.989905
vt 0.011287 0.987545
vt 0.252393 0.987346
vt 0.806770 0.246770
vt 0.807065 0.487943
vt 0.804438 0.485888
vt 0.530675 0.795448
vt 0.529399 0.792366
vt 0.529592 0.792327
vt 0.529399 0.789029
vt 0.529592 0.789068
vt 0.530676 0.785947
vt 0.530840 0.786056
vt 0.533035 0.783587
vt 0.533144 0.783752
vt 0.536156 0.782504
vt 0.536117 0.782311
vt 0.539415 0.782504
vt 0.539454 0.782311
vt 0.542427 0.783752
vt 0.542536 0.783587
vt 0.544732 0.786056
vt 0.544896 0.785947
vt 0.545979 0.789068
vt 0.546172 0.789029
vt 0.545979 0.792327
vt 0.544896 0.795448
vt 0.544732 0.795339
vt 0.542536 0.797808
vt 0.542427 0.797644
vt 0.539454 0.799084
vt 0.539415 0.798891
vt 0.536156 0.798891
vt 0.536117 0.799084
vt 0.533144 0.797643
vt 0.533035 0.797808
vt 0.530840 0.795339
vt 0.497487 0.009484
vt 0.252438 0.010853
vt 0.499045 0.008923
vt 0.252454 0.007650
vt 0.499049 0.007121
vt 0.252438 0.004333
vt 0.499027 0.003227
vt 0.499000 0.001482
vt 0.252393 0.001408
vt 0.498965 0.000000
vt 0.770010 0.740048
vt 0.769575 0.493400
vt 0.772382 0.493387
vt 0.773646 0.740039
vt 0.775665 0.493387
vt 0.776672 0.740046
vt 0.778925 0.493401
vt 0.780253 0.740071
vt 0.781667 0.493427
vt 0.781667 0.740089
vt 0.005797 0.001221
vt 0.252393 0.000725
vt 0.252343 0.003519
vt 0.005768 0.002889
vt 0.005744 0.006727
vt 0.252326 0.006798
vt 0.005745 0.007645
vt 0.005749 0.008552
vt 0.252343 0.010063
vt 0.007307 0.009122
vt 0.008674 0.010157
vt 0.011287 0.012485
vt 0.252393 0.012817
vt 0.806862 0.241173
vt 0.804521 0.002055
vt 0.804117 0.241194
vt 0.800894 0.002899
vt 0.800855 0.241201
vt 0.797573 0.241194
vt 0.496121 0.010488
vt 0.493511 0.012695
vt 0.252393 0.013455
vt 0.794770 0.241173
vt 0.794552 0.000000
vt 0.797242 0.002055
vt 0.521672 0.778939
vt 0.519458 0.973159
vt 0.518986 0.778939
vt 0.516797 0.975116
vt 0.518986 0.689517
vt 0.518986 0.495912
vt 0.521672 0.689517
vt 0.521672 0.495912
vt 0.524523 0.689517
vt 0.524523 0.495912
vt 0.527209 0.689517
vt 0.527209 0.495912
vt 0.529399 0.975116
vt 0.527209 0.479204
vt 0.529399 0.000000
vt 0.527209 0.291045
vt 0.527209 0.190733
vt 0.523098 0.972346
vt 0.524523 0.778939
vt 0.526738 0.973159
vt 0.527209 0.778939
vt 0.521672 0.291045
vt 0.521672 0.479204
vt 0.518986 0.291045
vt 0.518986 0.479204
vt 0.516797 0.000000
vt 0.524523 0.479204
vt 0.524523 0.291045
vt 0.526738 0.001957
vt 0.524523 0.190733
vt 0.523098 0.002770
vt 0.521672 0.190733
vt 0.519458 0.001957
vt 0.518986 0.190733
vt 0.499044 0.990012
vt 0.502165 0.993077
vt 0.502165 0.003919
vt 0.499045 0.007104
vt 0.002630 0.003581
vt 0.005749 0.993346
vt 0.002630 0.996475
vt -0.000000 0.999133
vt 0.000000 0.000885
vt 0.516796 0.998306
vt 0.514204 0.002746
vt 0.514203 0.995560
vt 0.512996 0.004187
vt 0.512995 0.994118
vt 0.512276 0.005814
vt 0.512275 0.992492
vt 0.511293 0.005814
vt 0.511292 0.992492
vt 0.510303 0.005814
vt 0.510303 0.992492
vt 0.509321 0.992492
vt 0.509319 0.005814
vt 0.508601 0.994118
vt 0.508599 0.004187
vt 0.507393 0.995560
vt 0.507392 0.002746
vt 0.504799 0.998306
vt 0.504799 0.000000
vt 0.504799 0.001094
vt 0.504799 0.995586
vt 0.005749 0.006725
vt 0.005773 0.997078
vt 0.005838 1.000000
vt 0.754143 0.693974
vt 0.748320 0.692990
vt 0.751378 0.691408
vt 0.748303 0.689488
vt 0.749932 0.690206
vt 0.771997 0.493385
vt 0.773785 0.246758
vt 0.777517 0.493338
vt 0.777025 0.246743
vt 0.780154 0.246759
vt 0.786665 0.493387
vt 0.784408 0.740043
vt 0.781667 0.493406
vt 0.781667 0.740056
vt 0.770927 0.246802
vt 0.787616 0.740043
vt 0.792274 0.493410
vt 0.790801 0.740057
vt 0.793479 0.740082
vt 0.769651 0.246758
vt 0.770927 0.493387
vt 0.766510 0.493289
vt 0.766922 0.246710
vt 0.763718 0.246693
vt 0.760796 0.493289
vt 0.760528 0.246710
vt 0.757838 0.246758
vt 0.756458 0.493387
vt 0.804083 0.740059
vt 0.802610 0.493412
vt 0.799423 0.493426
vt 0.798471 0.740082
vt 0.796217 0.493426
vt 0.793479 0.740062
vt 0.793479 0.493412
vt 0.782696 0.246804
vt 0.782696 0.493387
vt 0.499023 0.003300
vt 0.498962 0.000147
vt 0.754143 0.705969
vt 0.748320 0.704960
vt 0.751378 0.703346
vt 0.748303 0.701409
vt 0.749932 0.702131
vt 0.783766 0.493385
vt 0.785554 0.246758
vt 0.789286 0.493338
vt 0.788794 0.246743
vt 0.791923 0.246759
vt 0.775925 0.000000
vt 0.773668 0.246656
vt 0.770927 0.000020
vt 0.770927 0.246670
vt 0.782696 0.246802
vt 0.776876 0.246656
vt 0.781534 0.000023
vt 0.780061 0.246670
vt 0.782739 0.246696
vt 0.769651 0.000065
vt 0.770927 0.246693
vt 0.766510 0.246595
vt 0.766922 0.000017
vt 0.763718 0.000000
vt 0.760796 0.246595
vt 0.760528 0.000017
vt 0.757838 0.000065
vt 0.756458 0.246693
vt 0.793343 0.246673
vt 0.791870 0.000026
vt 0.788683 0.000039
vt 0.787731 0.246696
vt 0.785477 0.000040
vt 0.782739 0.246676
vt 0.782739 0.000026
vt 0.794465 0.246804
vt 0.794465 0.493387
vt 0.754143 0.681978
vt 0.751378 0.684598
vt 0.749932 0.685812
vt 0.748303 0.686535
vt 0.737866 0.782088
vt 0.738061 0.785076
vt 0.737866 0.785042
vt 0.736492 0.788686
vt 0.736334 0.788567
vt 0.735130 0.790124
vt 0.733385 0.791034
vt 0.733474 0.791210
vt 0.729644 0.792116
vt 0.736334 0.778562
vt 0.736492 0.778444
vt 0.738061 0.782053
vt 0.735130 0.777005
vt 0.733385 0.776095
vt 0.733474 0.775919
vt 0.729644 0.775013
vt 0.729644 0.775211
vt 0.727818 0.775211
vt 0.729644 0.791919
vt 0.728726 0.792066
vt 0.727818 0.791919
vt 0.754143 0.693973
vt 0.751378 0.696535
vt 0.749932 0.697735
vt 0.748303 0.698452
vt 0.738255 0.785043
vt 0.738061 0.785078
vt 0.738255 0.782086
vt 0.738061 0.782051
vt 0.739629 0.778443
vt 0.739629 0.788687
vt 0.739787 0.788568
vt 0.740991 0.790125
vt 0.742736 0.791034
vt 0.742648 0.791211
vt 0.746477 0.792116
vt 0.746477 0.791919
vt 0.748303 0.791919
vt 0.739787 0.778561
vt 0.740991 0.777005
vt 0.742736 0.776095
vt 0.742648 0.775919
vt 0.746477 0.775013
vt 0.746477 0.775211
vt 0.747396 0.775063
vt 0.748303 0.775211
vt 0.748320 0.682986
vt 0.498962 0.996384
vt 0.499023 0.993662
vt 0.593400 0.785168
vt 0.595354 0.790538
vt 0.588451 0.782311
vt 0.582823 0.783303
vt 0.593400 0.795907
vt 0.579150 0.787680
vt 0.588451 0.798764
vt 0.579150 0.793395
vt 0.582823 0.797772
vt 0.748320 0.694954
vt 0.005838 0.000000
vt 0.005773 0.002975
vt 0.579150 0.787680
vt 0.579150 0.793395
vt 0.575477 0.783303
vt 0.569849 0.782311
vt 0.575477 0.797772
vt 0.564901 0.785168
vt 0.569849 0.798765
vt 0.562946 0.790538
vt 0.564901 0.795907
vt 0.748303 0.711880
vt 0.748303 0.708926
vt 0.748420 0.710897
vt 0.748420 0.709908
vt 0.748303 0.708926
vt 0.748303 0.705969
vt 0.748421 0.707943
vt 0.748421 0.706953
s 1
usemtl 191,191,191
f 8/1/1 4/2/1 6/3/1
f 6/3/1 4/2/1 2/4/1
f 7/5/2 8/6/2 5/7/2
f 5/7/2 8/6/2 6/8/2
f 3/3/3 7/9/3 1/10/3
f 1/10/3 7/9/3 5/11/3
f 4/12/4 3/13/4 2/14/4
f 2/14/4 3/13/4 1/15/4
f 2/16/5 1/17/5 6/18/5
f 6/18/5 1/17/5 5/19/5
f 3/20/6 4/21/6 7/22/6
f 7/22/6 4/21/6 8/23/6
usemtl 235,235,235
f 9/24/7 10/25/8 11/26/9
f 11/26/9 10/25/8 12/27/10
f 10/28/8 13/29/11 12/30/10
f 12/30/10 13/29/11 14/31/12
f 12/30/10 14/31/12 15/32/13
f 15/32/13 14/31/12 16/33/14
f 17/34/15 18/35/16 19/36/17
f 19/36/17 18/35/16 20/37/18
f 19/36/17 20/37/18 11/38/9
f 11/38/9 20/37/18 9/39/7
f 16/40/14 17/41/15 15/42/13
f 15/42/13 17/41/15 19/43/17
f 15/44/13 19/45/17 12/46/10
f 12/46/10 19/45/17 11/47/9
f 21/48/19 22/49/20 23/50/9
f 23/50/9 22/49/20 24/51/10
f 22/52/20 25/53/21 24/54/10
f 24/54/10 25/53/21 26/55/22
f 24/54/10 26/55/22 27/56/13
f 27/56/13 26/55/22 28/57/23
f 29/58/24 30/59/25 31/60/17
f 31/60/17 30/59/25 32/61/26
f 31/60/17 32/61/26 23/62/9
f 23/62/9 32/61/26 21/63/19
f 28/64/23 29/65/24 27/66/13
f 27/66/13 29/65/24 31/67/17
f 27/68/13 31/69/17 24/70/10
f 24/70/10 31/69/17 23/71/9
f 45/96/32 46/97/33 47/98/34
f 47/98/34 46/97/33 48/99/35
f 47/98/34 48/99/35 49/100/36
f 49/100/36 48/99/35 50/101/37
f 49/100/36 50/101/37 51/102/38
f 51/102/38 50/101/37 52/103/39
f 51/102/38 52/103/39 53/104/40
f 53/104/40 52/103/39 54/105/41
f 54/105/41 52/103/39 55/106/42
f 54/105/41 55/106/42 56/107/43
f 56/107/43 55/106/42 57/108/44
f 56/107/43 57/108/44 58/109/45
f 58/109/45 57/108/44 59/110/46
f 58/109/45 59/110/46 60/111/47
f 60/111/47 59/110/46 61/112/48
f 60/111/47 61/112/48 62/113/49
f 62/113/49 61/112/48 63/114/50
f 62/113/49 63/114/50 64/115/51
f 62/113/49 64/115/51 65/116/52
f 65/116/52 64/115/51 66/117/53
f 65/116/52 66/117/53 67/118/54
f 67/118/54 66/117/53 68/119/55
f 67/118/54 68/119/55 69/120/56
f 69/120/56 68/119/55 70/121/57
f 69/120/56 70/121/57 71/122/58
f 71/122/58 70/121/57 72/123/59
f 72/123/59 70/121/57 73/124/60
f 72/123/59 73/124/60 74/125/61
f 74/125/61 73/124/60 75/126/62
f 74/125/61 75/126/62 76/127/63
f 76/127/63 75/126/62 45/96/32
f 76/127/63 45/96/32 47/98/34
f 99/174/86 100/175/87 101/176/34
f 101/176/34 100/175/87 102/177/88
f 101/176/34 102/177/88 103/178/36
f 103/178/36 102/177/88 104/179/89
f 103/178/36 104/179/89 105/180/38
f 105/180/38 104/179/89 106/181/90
f 105/180/38 106/181/90 107/182/40
f 107/182/40 106/181/90 108/183/41
f 108/183/41 106/181/90 109/184/91
f 108/183/41 109/184/91 110/185/43
f 110/185/43 109/184/91 111/186/92
f 110/185/43 111/186/92 112/187/45
f 112/187/45 111/186/92 113/188/93
f 112/187/45 113/188/93 114/189/47
f 114/189/47 113/188/93 115/190/94
f 114/189/47 115/190/94 116/191/49
f 116/191/49 115/190/94 117/192/95
f 116/191/49 117/192/95 118/97/96
f 116/191/49 118/97/96 119/193/52
f 119/193/52 118/97/96 120/194/97
f 119/193/52 120/194/97 121/195/54
f 121/195/54 120/194/97 122/196/98
f 121/195/54 122/196/98 123/197/56
f 123/197/56 122/196/98 124/198/99
f 123/197/56 124/198/99 125/199/58
f 125/199/58 124/198/99 126/200/59
f 126/200/59 124/198/99 127/201/100
f 126/200/59 127/201/100 128/202/61
f 128/202/61 127/201/100 129/203/101
f 128/202/61 129/203/101 130/204/63
f 130/204/63 129/203/101 99/174/86
f 130/204/63 99/174/86 101/176/34
f 184/397/155 84/398/71 211/399/173
f 211/399/173 84/398/71 85/400/72
f 211/399/173 85/400/72 212/401/174
f 212/401/174 85/400/72 86/402/73
f 212/401/174 86/402/73 213/403/175
f 213/403/175 86/402/73 87/404/74
f 213/403/175 87/404/74 88/405/75
f 182/406/153 82/407/69 184/397/155
f 184/397/155 82/407/69 83/408/70
f 184/397/155 83/408/70 84/398/71
f 82/407/69 182/406/153 81/409/68
f 81/409/68 182/406/153 181/410/152
f 81/409/68 181/410/152 80/411/67
f 80/411/67 181/410/152 79/412/66
f 79/412/66 181/410/152 158/413/129
f 79/412/66 158/413/129 78/414/65
f 213/403/175 88/405/75 153/415/124
f 153/415/124 88/405/75 89/416/76
f 153/415/124 89/416/76 90/417/77
f 198/422/169 137/423/108 216/424/178
f 216/424/178 137/423/108 138/425/109
f 216/424/178 138/425/109 139/426/110
f 137/423/108 198/422/169 136/427/107
f 136/427/107 198/422/169 196/428/167
f 136/427/107 196/428/167 135/429/106
f 135/429/106 196/428/167 195/430/166
f 135/429/106 195/430/166 134/431/105
f 134/431/105 195/430/166 133/432/104
f 133/432/104 195/430/166 156/433/127
f 133/432/104 156/433/127 132/434/103
f 216/424/178 139/426/110 217/435/179
f 217/435/179 139/426/110 140/436/111
f 217/435/179 140/436/111 218/437/180
f 218/437/180 140/436/111 141/438/112
f 218/437/180 141/438/112 142/439/113
f 218/437/180 142/439/113 180/440/151
f 180/440/151 142/439/113 143/441/114
f 180/440/151 143/441/114 144/442/115
f 187/446/158 194/447/165 186/448/157
f 186/448/157 194/447/165 188/449/159
f 188/449/159 194/447/165 193/450/164
f 188/449/159 193/450/164 189/451/160
f 189/451/160 193/450/164 192/452/163
f 189/451/160 192/452/163 190/453/161
f 190/453/161 192/452/163 191/454/162
f 201/458/158 208/459/165 200/460/157
f 200/460/157 208/459/165 202/461/159
f 202/461/159 208/459/165 207/462/164
f 202/461/159 207/462/164 203/463/160
f 203/463/160 207/462/164 206/464/163
f 203/463/160 206/464/163 204/465/161
f 204/465/161 206/464/163 205/466/162
f 167/467/138 172/468/143 169/469/140
f 169/469/140 172/468/143 171/470/142
f 173/471/144 166/472/137 170/473/141
f 170/473/141 166/472/137 168/474/139
usemtl 178,0,0
f 33/72/7 34/73/20 35/74/9
f 35/74/9 34/73/20 36/75/27
f 34/76/20 37/77/28 36/78/27
f 36/78/27 37/77/28 38/79/29
f 36/78/27 38/79/29 39/80/13
f 39/80/13 38/79/29 40/81/30
f 41/82/15 42/83/16 43/84/31
f 43/84/31 42/83/16 44/85/18
f 43/84/31 44/85/18 35/86/9
f 35/86/9 44/85/18 33/87/7
f 40/88/30 41/89/15 39/90/13
f 39/90/13 41/89/15 43/91/31
f 39/92/13 43/93/31 36/94/27
f 36/94/27 43/93/31 35/95/9
f 77/128/64 64/129/51 78/130/65
f 78/130/65 64/129/51 63/131/50
f 78/130/65 63/131/50 79/132/66
f 79/132/66 63/131/50 61/133/48
f 79/132/66 61/133/48 80/134/67
f 80/134/67 61/133/48 81/135/68
f 81/135/68 61/133/48 59/136/46
f 81/137/68 59/138/46 82/139/69
f 82/139/69 59/138/46 57/140/44
f 82/139/69 57/140/44 83/141/70
f 83/141/70 57/140/44 55/142/42
f 83/141/70 55/142/42 84/143/71
f 84/143/71 55/142/42 52/144/39
f 84/143/71 52/144/39 85/145/72
f 85/145/72 52/144/39 50/146/37
f 85/145/72 50/146/37 86/147/73
f 86/148/73 50/149/37 48/150/35
f 86/148/73 48/150/35 87/151/74
f 87/151/74 48/150/35 88/152/75
f 88/152/75 48/150/35 46/153/33
f 88/152/75 46/153/33 89/154/76
f 89/154/76 46/153/33 90/155/77
f 90/155/77 46/153/33 45/156/32
f 90/155/77 45/156/32 91/157/78
f 91/157/78 45/156/32 92/158/79
f 92/158/79 45/156/32 93/159/80
f 93/159/80 45/156/32 75/160/62
f 93/161/80 75/162/62 94/163/81
f 94/163/81 75/162/62 73/164/60
f 94/163/81 73/164/60 95/165/82
f 95/165/82 73/164/60 70/166/57
f 95/165/82 70/166/57 68/167/55
f 77/128/64 96/168/83 64/129/51
f 64/129/51 96/168/83 97/169/84
f 64/129/51 97/169/84 66/170/53
f 66/171/53 97/172/84 98/173/85
f 66/171/53 98/173/85 68/167/55
f 68/167/55 98/173/85 95/165/82
f 200/361/157 130/362/63 201/363/158
f 201/363/158 130/362/63 101/364/34
f 201/363/158 101/364/34 103/365/36
f 202/366/159 126/367/59 200/368/157
f 200/368/157 126/367/59 128/369/61
f 200/361/157 128/370/61 130/362/63
f 126/367/59 202/366/159 125/371/58
f 125/371/58 202/366/159 203/372/160
f 125/371/58 203/372/160 123/373/56
f 123/373/56 203/372/160 121/374/54
f 121/375/54 203/376/160 204/377/161
f 121/375/54 204/377/161 119/378/52
f 119/378/52 204/377/161 116/379/49
f 116/379/49 204/377/161 205/380/162
f 116/379/49 205/380/162 114/381/47
f 114/381/47 205/380/162 112/382/45
f 112/382/45 205/380/162 206/383/163
f 112/248/45 206/384/163 110/385/43
f 110/385/43 206/384/163 108/386/41
f 108/386/41 206/384/163 207/387/164
f 108/386/41 207/387/164 107/388/40
f 107/388/40 207/387/164 208/389/165
f 107/388/40 208/389/165 105/390/38
f 105/391/38 208/392/165 103/365/36
f 103/365/36 208/392/165 201/363/158
usemtl 0,0,0
f 131/205/102 102/206/88 132/207/103
f 132/207/103 102/206/88 100/208/87
f 132/207/103 100/208/87 133/209/104
f 133/209/104 100/208/87 99/210/86
f 133/209/104 99/210/86 134/211/105
f 134/211/105 99/210/86 135/212/106
f 135/212/106 99/210/86 129/213/101
f 135/212/106 129/213/101 136/214/107
f 136/215/107 129/216/101 127/217/100
f 136/215/107 127/217/100 137/218/108
f 137/218/108 127/217/100 124/219/99
f 137/218/108 124/219/99 138/220/109
f 138/220/109 124/219/99 122/221/98
f 138/220/109 122/221/98 139/222/110
f 139/222/110 122/221/98 120/223/97
f 139/222/110 120/223/97 140/224/111
f 140/225/111 120/226/97 118/227/96
f 140/225/111 118/227/96 141/228/112
f 141/228/112 118/227/96 142/229/113
f 142/229/113 118/227/96 117/230/95
f 142/229/113 117/230/95 143/231/114
f 143/231/114 117/230/95 144/232/115
f 144/232/115 117/230/95 115/233/94
f 144/232/115 115/233/94 145/234/116
f 145/234/116 115/233/94 146/235/117
f 146/235/117 115/233/94 147/236/118
f 147/236/118 115/233/94 113/237/93
f 147/86/118 113/238/93 148/239/119
f 148/239/119 113/238/93 111/240/92
f 148/239/119 111/240/92 149/241/120
f 149/241/120 111/240/92 109/242/91
f 149/241/120 109/242/91 106/243/90
f 131/205/102 150/244/121 102/206/88
f 102/206/88 150/244/121 151/245/122
f 102/206/88 151/245/122 104/246/89
f 104/247/89 151/248/122 152/249/123
f 104/247/89 152/249/123 106/243/90
f 106/243/90 152/249/123 149/241/120
f 186/322/157 76/323/63 187/324/158
f 187/324/158 76/323/63 47/325/34
f 187/324/158 47/325/34 49/326/36
f 188/327/159 72/328/59 186/329/157
f 186/329/157 72/328/59 74/330/61
f 186/322/157 74/331/61 76/323/63
f 72/328/59 188/327/159 71/332/58
f 71/332/58 188/327/159 189/333/160
f 71/332/58 189/333/160 69/334/56
f 69/334/56 189/333/160 67/335/54
f 67/336/54 189/337/160 190/338/161
f 67/336/54 190/338/161 65/339/52
f 65/339/52 190/338/161 62/340/49
f 62/340/49 190/338/161 191/341/162
f 62/340/49 191/341/162 60/342/47
f 60/342/47 191/341/162 58/343/45
f 58/343/45 191/341/162 192/344/163
f 58/10/45 192/345/163 56/346/43
f 56/346/43 192/345/163 54/347/41
f 54/347/41 192/345/163 193/348/164
f 54/347/41 193/348/164 53/349/40
f 53/349/40 193/348/164 194/350/165
f 53/349/40 194/350/165 51/351/38
f 51/352/38 194/353/165 49/326/36
f 49/326/36 194/353/165 187/324/158
usemtl 239,239,239
f 14/250/12 98/251/85 16/252/14
f 16/252/14 98/251/85 97/253/84
f 16/252/14 97/253/84 17/254/15
f 17/254/15 97/253/84 40/255/30
f 17/254/15 40/255/30 18/256/16
f 18/256/16 40/255/30 38/257/29
f 18/256/16 38/257/29 20/258/18
f 20/258/18 38/257/29 37/259/28
f 20/258/18 37/259/28 9/260/7
f 9/260/7 37/259/28 34/261/20
f 9/260/7 34/261/20 93/262/80
f 93/262/80 34/261/20 33/263/7
f 93/262/80 33/263/7 151/264/122
f 151/264/122 33/263/7 22/265/20
f 151/264/122 22/265/20 21/266/19
f 98/251/85 14/250/12 95/267/82
f 95/267/82 14/250/12 13/268/11
f 95/267/82 13/268/11 94/269/81
f 94/269/81 13/268/11 10/270/8
f 94/269/81 10/270/8 93/262/80
f 93/262/80 10/270/8 9/260/7
f 26/271/22 42/272/16 28/273/23
f 28/273/23 42/272/16 41/274/15
f 28/273/23 41/274/15 147/275/118
f 147/275/118 41/274/15 40/255/30
f 147/275/118 40/255/30 97/253/84
f 42/272/16 26/271/22 44/276/18
f 44/276/18 26/271/22 25/277/21
f 44/276/18 25/277/21 33/263/7
f 33/263/7 25/277/21 22/265/20
f 151/264/122 21/266/19 152/278/123
f 152/278/123 21/266/19 32/279/26
f 152/278/123 32/279/26 149/280/120
f 149/280/120 32/279/26 30/281/25
f 149/280/120 30/281/25 148/282/119
f 148/282/119 30/281/25 29/283/24
f 148/282/119 29/283/24 147/275/118
f 147/275/118 29/283/24 28/273/23
f 153/284/124 90/155/77 154/285/125
f 154/285/125 90/155/77 132/207/103
f 154/285/125 132/207/103 155/286/126
f 155/286/126 132/207/103 156/287/127
f 132/207/103 90/155/77 131/205/102
f 131/205/102 90/155/77 91/157/78
f 131/205/102 91/157/78 150/244/121
f 150/244/121 91/157/78 92/158/79
f 150/244/121 92/158/79 151/245/122
f 151/245/122 92/158/79 93/159/80
f 97/169/84 96/168/83 147/236/118
f 147/236/118 96/168/83 146/235/117
f 146/235/117 96/168/83 145/234/116
f 145/234/116 96/168/83 77/128/64
f 145/234/116 77/128/64 144/232/115
f 144/232/115 77/128/64 78/130/65
f 144/232/115 78/130/65 157/288/128
f 157/288/128 78/130/65 158/289/129
f 157/288/128 158/289/129 159/290/130
f 159/290/130 160/291/131 157/288/128
f 157/288/128 160/291/131 161/292/132
f 161/275/132 160/293/131 162/294/133
f 162/294/133 160/293/131 163/295/134
f 162/294/133 163/295/134 164/296/135
f 164/296/135 163/295/134 165/297/136
f 164/296/135 165/297/136 166/298/137
f 166/298/137 165/297/136 167/299/138
f 166/298/137 167/299/138 168/300/139
f 168/300/139 167/299/138 169/301/140
f 168/300/139 169/301/140 170/302/141
f 170/302/141 169/301/140 171/303/142
f 170/302/141 171/303/142 172/304/143
f 170/302/141 172/304/143 173/305/144
f 173/305/144 172/304/143 174/306/145
f 173/305/144 174/306/145 175/307/146
f 175/307/146 174/306/145 176/308/147
f 175/307/146 176/308/147 177/309/148
f 177/309/148 176/308/147 178/310/149
f 177/309/148 178/310/149 179/311/150
f 179/312/150 178/313/149 154/285/125
f 179/312/150 154/285/125 155/286/126
f 180/314/151 144/232/115 157/288/128
usemtl 255,255,255
f 158/289/129 181/315/152 159/290/130
f 159/290/130 181/315/152 182/316/153
f 159/290/130 182/316/153 160/291/131
f 160/317/131 182/318/153 183/319/154
f 183/319/154 182/318/153 184/320/155
f 183/319/154 184/320/155 185/321/156
f 156/287/127 195/354/166 155/286/126
f 155/286/126 195/354/166 196/355/167
f 155/286/126 196/355/167 179/312/150
f 179/356/150 196/357/167 197/358/168
f 197/358/168 196/357/167 198/359/169
f 197/358/168 198/359/169 199/360/170
f 176/308/147 160/293/131 178/310/149
f 178/393/149 160/317/131 183/319/154
f 178/393/149 183/319/154 209/394/171
f 209/394/171 183/319/154 210/395/172
f 210/395/172 183/319/154 185/321/156
f 210/395/172 185/321/156 211/396/173
f 211/396/173 185/321/156 184/320/155
f 174/306/145 165/297/136 176/308/147
f 176/308/147 165/297/136 163/295/134
f 176/308/147 163/295/134 160/293/131
f 172/304/143 167/299/138 174/306/145
f 174/306/145 167/299/138 165/297/136
f 162/294/133 179/311/150 161/275/132
f 161/418/132 179/356/150 197/358/168
f 161/418/132 197/358/168 214/419/176
f 214/419/176 197/358/168 215/420/177
f 215/420/177 197/358/168 199/360/170
f 215/420/177 199/360/170 216/421/178
f 216/421/178 199/360/170 198/359/169
f 164/296/135 175/307/146 162/294/133
f 162/294/133 175/307/146 177/309/148
f 162/294/133 177/309/148 179/311/150
f 166/298/137 173/305/144 164/296/135
f 164/296/135 173/305/144 175/307/146
f 211/396/173 212/443/174 210/395/172
f 210/395/172 212/443/174 209/394/171
f 209/394/171 212/443/174 178/393/149
f 178/313/149 212/444/174 213/445/175
f 178/313/149 213/445/175 154/285/125
f 154/285/125 213/445/175 153/284/124
f 216/421/178 217/455/179 215/420/177
f 215/420/177 217/455/179 214/419/176
f 214/419/176 217/455/179 161/418/132
f 161/292/132 217/456/179 218/457/180
f 161/292/132 218/457/180 157/288/128
f 157/288/128 218/457/180 180/314/151
